<?xml version="1.0"?>
<svg width="99.99999999999999" height="125.00000000000001" xmlns="http://www.w3.org/2000/svg" xmlns:svg="http://www.w3.org/2000/svg" enable-background="new 0 0 100 100" version="1.1" xml:space="preserve">
 <g class="layer">
  <title>Layer 1</title>
  <path d="m50.02,80.44c-3.81,0 -7.28,-1.34 -9.54,-3.68c-0.97,-1.02 -0.94,-2.64 0.07,-3.61c1.02,-0.97 2.64,-0.95 3.61,0.07c1.26,1.3 3.51,2.12 5.87,2.12c2.35,0 4.6,-0.82 5.85,-2.12c0.97,-1.02 2.59,-1.04 3.61,-0.07c1.01,0.97 1.04,2.59 0.07,3.61c-2.25,2.34 -5.73,3.68 -9.53,3.68l-0.01,0zm41.14,-35.75c-1.34,0 -2.6,0.34 -3.71,0.92c-5.62,-15.23 -20.28,-26.11 -37.43,-26.11s-31.81,10.88 -37.44,26.11c-1.11,-0.58 -2.37,-0.92 -3.71,-0.92c-4.45,0 -8.08,3.62 -8.08,8.08l0,14.49c0,4.44 3.62,8.07 8.08,8.07c4.44,0 8.07,-3.62 8.07,-8.07l0,-14.49c0,-0.93 -0.15,-1.82 -0.45,-2.65c4.06,-14.7 17.55,-25.51 33.52,-25.51s29.46,10.81 33.52,25.51c-0.28,0.83 -0.44,1.72 -0.44,2.65l0,14.49c0,0.7 0.09,1.38 0.25,2.02c-3.64,12.26 -13.88,21.69 -26.56,24.21c-1.2,-2.54 -3.78,-4.3 -6.77,-4.3c-4.13,0 -7.46,3.35 -7.46,7.47c0,4.13 3.34,7.47 7.46,7.47c3.46,0 6.37,-2.34 7.22,-5.54c13.58,-2.5 24.79,-11.9 29.81,-24.41c1.2,0.72 2.62,1.14 4.11,1.14c4.45,0 8.08,-3.62 8.08,-8.08l0,-14.48c0,-4.45 -3.62,-8.08 -8.08,-8.08l0.01,0.01zm-55.26,3.11c-1.41,0 -2.55,1.14 -2.55,2.55l0,6.98c0,1.4 1.14,2.55 2.55,2.55c1.41,0 2.56,-1.15 2.56,-2.55l0,-6.98c0,-1.41 -1.15,-2.55 -2.56,-2.55zm30.79,9.53l0,-6.98c0,-1.41 -1.14,-2.55 -2.55,-2.55c-1.41,0 -2.55,1.15 -2.55,2.55l0,6.98c0,1.41 1.14,2.55 2.55,2.55c1.41,0 2.55,-1.14 2.55,-2.55z" id="svg_1"/>
 </g>

</svg>