<?xml version="1.0"?>
<svg width="1024" height="1280" xmlns="http://www.w3.org/2000/svg" xmlns:svg="http://www.w3.org/2000/svg" enable-background="new 0 0 1024 1024" version="1.1" xml:space="preserve">

 <g class="layer">
  <title>Layer 1</title>
  <g id="svg_1">
   <path d="m929.67,918.52c-30.15,-30.15 -60.29,-60.29 -90.44,-90.44l-76.35,-76.35c-1.16,-1.16 -2.31,-2.31 -3.47,-3.47c0,0 -0.12,-0.12 -0.12,-0.12c-0.23,-0.23 -0.35,-0.35 -0.58,-0.58c-0.58,-0.58 -1.16,-1.04 -1.85,-1.62c0,0 -0.12,-0.12 -0.12,-0.12c-14.9,-12.13 -35.34,-11.44 -49.55,1.96c-2.66,2.54 -5.2,5.2 -7.74,7.74c-9.01,9.01 -18.02,18.02 -27.03,27.03c-8.66,-8.66 -17.33,-17.33 -25.99,-25.99c-6.58,-6.58 -17.9,-6.58 -24.49,0c-16.75,16.75 -33.38,33.38 -50.13,50.13c-6.58,6.58 -6.58,17.9 0,24.49l25.99,25.99l-26.45,26.45c-2.77,2.77 -5.54,5.43 -8.2,8.2c-12.13,12.71 -14.9,32.34 -4.16,47.01c5.43,7.51 12.82,13.75 19.4,20.21c29.92,29.92 59.83,59.83 89.75,89.75c25.76,25.76 51.4,51.4 77.16,77.16c1.5,1.5 3,3 4.5,4.5c14.32,14.09 32.34,22.29 52.21,24.6c18.37,2.19 38,-2.43 53.59,-12.13c7.74,-4.74 14.21,-10.86 20.56,-17.21c14.9,-14.78 29.68,-29.68 44.59,-44.47c12.47,-12.47 27.03,-24.72 36.85,-39.62c21.6,-32.92 16.4,-77.74 -10.4,-105.92c-5.89,-5.89 -11.78,-11.55 -17.56,-17.21z" id="svg_2"/>
   <path d="m1008.67,354.86c-1.16,-7.85 -2.31,-16.17 -4.85,-23.56c-3.7,-10.86 -14.32,-18.71 -25.99,-17.79c-13.86,1.04 -23.56,14.09 -32.8,23.33c-27.26,27.26 -54.63,54.63 -81.89,81.89l-11.78,11.9c-4.62,4.62 -10.16,9.82 -13.86,12.47c-14.44,10.4 -26.8,15.71 -44.24,18.94c-0.58,0.12 -3.93,0.58 -4.27,0.69c-1.62,0.23 -3.23,0.35 -4.74,0.46c-4.62,0.35 -9.24,0.35 -13.86,0.12c-7.74,-0.35 -11.2,-0.81 -19.64,-3c-3.35,-0.81 -6.7,-1.85 -10.05,-3c-1.73,-0.58 -3.35,-1.27 -5.08,-1.85c0,0 0.12,0 0.12,0.12c0,0 -0.12,0 -0.23,-0.12c0,0 0,0 0.12,0c-1.16,-0.46 -2.19,-1.04 -3.35,-1.5c-6.58,-3.23 -12.94,-6.93 -18.83,-11.32c-0.46,-0.35 -0.92,-0.69 -1.39,-1.04l0,0c-0.23,-0.12 -0.35,-0.35 -0.58,-0.58c-1.16,-1.04 -2.43,-1.96 -3.58,-3c-2.89,-2.54 -5.66,-5.31 -8.32,-8.2c-1.27,-1.39 -2.43,-2.66 -3.58,-4.04c-0.46,-0.46 -1.62,-1.96 -1.85,-2.19c-2.19,-2.89 -4.16,-5.78 -6.01,-8.89c-1.73,-2.89 -3.47,-5.89 -4.97,-8.89c-0.81,-1.62 -1.62,-3.35 -2.43,-4.97c0,0 0,-0.12 -0.12,-0.12c0,0.12 0.12,0.23 0.12,0.35c-0.12,-0.23 -0.35,-0.69 -0.35,-0.92c0,0.12 0.12,0.23 0.23,0.46c-0.35,-1.04 -0.81,-1.96 -1.16,-3c-2.66,-7.05 -4.62,-14.32 -5.78,-21.83c-0.12,-0.46 -0.35,-2.08 -0.35,-2.43c0,0 0,-0.12 0,-0.12c-0.23,-1.62 -0.35,-3.23 -0.46,-4.74c-0.35,-4.62 -0.35,-9.24 -0.12,-13.86c0.12,-2.19 0.23,-4.27 0.46,-6.35c0.12,-0.92 0.12,-1.27 0.12,-1.39c0,0 0,0 0,0c0,0 0,-0.12 0,0c0,-0.12 0.12,-0.46 0.23,-1.27c0.81,-4.5 1.73,-9.01 3,-13.4c5.54,-19.52 15.94,-34.54 30.72,-49.32c10.97,-10.97 21.95,-21.95 33.03,-33.03c24.37,-24.37 48.86,-48.86 73.23,-73.23c8.55,-8.55 12.24,-21.02 6.12,-32.11c-5.31,-9.7 -14.55,-12.59 -24.72,-14.67c-8.89,-1.85 -17.9,-3.23 -27.03,-4.27c-33.27,-3.93 -67.46,-1.27 -99.8,7.05c-68.03,17.67 -127.63,62.03 -164.6,121.74c-35.58,57.41 -47.93,126.82 -36.38,193.24c2.19,12.36 5.2,24.6 9.12,36.5l-90.09,90.09c-21.95,21.83 -43.78,43.78 -65.61,65.61c-44.35,44.35 -88.71,88.71 -133.06,133.06c-40.43,40.43 -80.74,80.74 -121.17,121.17c-7.74,7.74 -15.36,15.36 -23.1,23.1c-39.62,40.08 -48.28,103.61 -18.83,152.24c28.76,47.59 87.55,71.04 141.03,55.56c24.37,-7.05 43.66,-21.72 61.22,-39.27c34.19,-34.19 68.26,-68.26 102.45,-102.45c46.78,-46.78 93.44,-93.44 140.22,-140.22c23.22,-23.22 46.32,-46.32 69.53,-69.53c34.42,-34.42 68.84,-68.84 103.26,-103.26l10.28,-10.28c73.69,24.14 156.51,15.48 223.62,-23.68c20.44,-11.9 39.39,-26.68 56.14,-43.31c49.32,-49.67 78.31,-116.54 80.39,-186.54c0.12,-17.21 -1.27,-34.42 -3.93,-51.52zm-852.89,673.63c0,0 -0.12,0 0,0c-0.69,1.04 -1.39,1.96 -2.31,2.66c-1.04,1.16 -2.19,2.08 -3.35,2.77c-13.63,10.05 -32.8,9.82 -45.39,-2.77c-13.28,-13.28 -13.17,-35.46 0,-48.74c13.17,-13.28 35.58,-13.28 48.74,0c12.71,12.94 12.71,32.34 2.31,46.09z" id="svg_3"/>
   <path d="m379.4,514.14c-16.75,16.75 -33.38,33.38 -50.13,50.13c-6.58,6.58 -17.9,6.58 -24.49,0c-6.01,-6.01 -12.13,-12.01 -18.13,-18.13c-25.99,-25.99 -51.98,-51.98 -77.97,-77.97c-14.67,-14.67 -29.45,-29.45 -44.12,-44.12c-15.02,-0.81 -30.03,-1.5 -45.16,-2.31c-9.12,-0.46 -17.21,-0.58 -23.1,-9.24c-1.96,-2.89 -3.81,-5.89 -5.66,-8.89c-9.12,-14.32 -18.37,-28.76 -27.49,-43.08c-15.59,-24.49 -31.19,-48.97 -46.9,-73.46c-4.04,-6.47 -2.54,-15.71 2.77,-21.02c20.79,-20.79 41.47,-41.47 62.26,-62.26c5.31,-5.31 14.55,-6.81 21.02,-2.66l29.45,18.83c30.15,19.29 60.29,38.46 90.44,57.75c4.27,2.77 9.24,5.31 11.9,9.82c3.58,6.12 2.77,16.17 3.12,23.1c0.69,12.94 1.27,25.87 1.96,38.81c4.5,4.5 8.89,8.89 13.4,13.4c25.99,25.99 51.98,51.98 77.97,77.97c16.29,16.29 32.57,32.57 48.86,48.86c6.58,6.58 6.58,17.9 0,24.49z" id="svg_4"/>
  </g>
 </g>
</svg>