<?xml version="1.0"?>
<svg width="24" height="24" xmlns="http://www.w3.org/2000/svg" xmlns:svg="http://www.w3.org/2000/svg">

 <g class="layer">
  <title>Layer 1</title>
  <path d="m21.67,7.2a2.51,2.51 0 0 0 -1.76,-1.76c-1.56,-0.43 -7.83,-0.44 -7.83,-0.44s-6.26,-0.01 -7.83,0.4a2.56,2.56 0 0 0 -1.77,1.78c-0.41,1.57 -0.41,4.82 -0.41,4.82s-0.01,3.26 0.4,4.81c0.23,0.86 0.91,1.53 1.76,1.77c1.59,0.43 7.83,0.43 7.83,0.43s6.27,0.01 7.84,-0.4a2.52,2.52 0 0 0 1.76,-1.76c0.42,-1.57 0.42,-4.82 0.42,-4.82s0.02,-3.26 -0.41,-4.83zm-11.59,7.81l0,-6l5.21,3l-5.21,3z" fill="#ff0000" id="svg_1"/>
 </g>
</svg>