<svg xmlns="http://www.w3.org/2000/svg" xmlns:xlink="http://www.w3.org/1999/xlink" version="1.1" x="0px" y="0px" viewBox="0 0 1024 1280" style="enable-background:new 0 0 1024 1024;" xml:space="preserve"><g><path d="M880.8,753.4c-26.1-26.1-52.2-52.2-78.3-78.3L736.4,609c-1-1-2-2-3-3c0,0-0.1-0.1-0.1-0.1   c-0.2-0.2-0.3-0.3-0.5-0.5c-0.5-0.5-1-0.9-1.6-1.4c0,0-0.1-0.1-0.1-0.1c-12.9-10.5-30.6-9.9-42.9,1.7c-2.3,2.2-4.5,4.5-6.7,6.7   c-7.8,7.8-15.6,15.6-23.4,23.4c-7.5-7.5-15-15-22.5-22.5c-5.7-5.7-15.5-5.7-21.2,0c-14.5,14.5-28.9,28.9-43.4,43.4   c-5.7,5.7-5.7,15.5,0,21.2l22.5,22.5l-22.9,22.9c-2.4,2.4-4.8,4.7-7.1,7.1c-10.5,11-12.9,28-3.6,40.7c4.7,6.5,11.1,11.9,16.8,17.5   c25.9,25.9,51.8,51.8,77.7,77.7c22.3,22.3,44.5,44.5,66.8,66.8c1.3,1.3,2.6,2.6,3.9,3.9c12.4,12.2,28,19.3,45.2,21.3   c15.9,1.9,32.9-2.1,46.4-10.5c6.7-4.1,12.3-9.4,17.8-14.9c12.9-12.8,25.7-25.7,38.6-38.5c10.8-10.8,23.4-21.4,31.9-34.3   c18.7-28.5,14.2-67.3-9-91.7C890.9,763.2,885.8,758.3,880.8,753.4z"/><path d="M949.2,265.4c-1-6.8-2-14-4.2-20.4c-3.2-9.4-12.4-16.2-22.5-15.4c-12,0.9-20.4,12.2-28.4,20.2   c-23.6,23.6-47.3,47.3-70.9,70.9L813,331c-4,4-8.8,8.5-12,10.8c-12.5,9-23.2,13.6-38.3,16.4c-0.5,0.1-3.4,0.5-3.7,0.6   c-1.4,0.2-2.8,0.3-4.1,0.4c-4,0.3-8,0.3-12,0.1c-6.7-0.3-9.7-0.7-17-2.6c-2.9-0.7-5.8-1.6-8.7-2.6c-1.5-0.5-2.9-1.1-4.4-1.6   c0,0,0.1,0,0.1,0.1c0,0-0.1,0-0.2-0.1c0,0,0,0,0.1,0c-1-0.4-1.9-0.9-2.9-1.3c-5.7-2.8-11.2-6-16.3-9.8c-0.4-0.3-0.8-0.6-1.2-0.9h0   c-0.2-0.1-0.3-0.3-0.5-0.5c-1-0.9-2.1-1.7-3.1-2.6c-2.5-2.2-4.9-4.6-7.2-7.1c-1.1-1.2-2.1-2.3-3.1-3.5c-0.4-0.4-1.4-1.7-1.6-1.9   c-1.9-2.5-3.6-5-5.2-7.7c-1.5-2.5-3-5.1-4.3-7.7c-0.7-1.4-1.4-2.9-2.1-4.3c0,0,0-0.1-0.1-0.1c0,0.1,0.1,0.2,0.1,0.3   c-0.1-0.2-0.3-0.6-0.3-0.8c0,0.1,0.1,0.2,0.2,0.4c-0.3-0.9-0.7-1.7-1-2.6c-2.3-6.1-4-12.4-5-18.9c-0.1-0.4-0.3-1.8-0.3-2.1   c0,0,0-0.1,0-0.1c-0.2-1.4-0.3-2.8-0.4-4.1c-0.3-4-0.3-8-0.1-12c0.1-1.9,0.2-3.7,0.4-5.5c0.1-0.8,0.1-1.1,0.1-1.2c0,0,0,0,0,0   c0,0,0-0.1,0,0c0-0.1,0.1-0.4,0.2-1.1c0.7-3.9,1.5-7.8,2.6-11.6c4.8-16.9,13.8-29.9,26.6-42.7c9.5-9.5,19-19,28.6-28.6   c21.1-21.1,42.3-42.3,63.4-63.4c7.4-7.4,10.6-18.2,5.3-27.8c-4.6-8.4-12.6-10.9-21.4-12.7c-7.7-1.6-15.5-2.8-23.4-3.7   c-28.8-3.4-58.4-1.1-86.4,6.1c-58.9,15.3-110.5,53.7-142.5,105.4c-30.8,49.7-41.5,109.8-31.5,167.3c1.9,10.7,4.5,21.3,7.9,31.6   l-78,78c-19,18.9-37.9,37.9-56.8,56.8c-38.4,38.4-76.8,76.8-115.2,115.2c-35,35-69.9,69.9-104.9,104.9c-6.7,6.7-13.3,13.3-20,20   c-34.3,34.7-41.8,89.7-16.3,131.8c24.9,41.2,75.8,61.5,122.1,48.1c21.1-6.1,37.8-18.8,53-34c29.6-29.6,59.1-59.1,88.7-88.7   c40.5-40.5,80.9-80.9,121.4-121.4c20.1-20.1,40.1-40.1,60.2-60.2c29.8-29.8,59.6-59.6,89.4-89.4l8.9-8.9   c63.8,20.9,135.5,13.4,193.6-20.5c17.7-10.3,34.1-23.1,48.6-37.5c42.7-43,67.8-100.9,69.6-161.5   C952.7,295.1,951.5,280.2,949.2,265.4z M210.8,848.6C210.8,848.6,210.7,848.6,210.8,848.6c-0.6,0.9-1.2,1.7-2,2.3   c-0.9,1-1.9,1.8-2.9,2.4c-11.8,8.7-28.4,8.5-39.3-2.4c-11.5-11.5-11.4-30.7,0-42.2c11.4-11.5,30.8-11.5,42.2,0   C219.8,819.9,219.8,836.7,210.8,848.6z"/><path d="M404.4,403.3c-14.5,14.5-28.9,28.9-43.4,43.4c-5.7,5.7-15.5,5.7-21.2,0c-5.2-5.2-10.5-10.4-15.7-15.7   c-22.5-22.5-45-45-67.5-67.5c-12.7-12.7-25.5-25.5-38.2-38.2c-13-0.7-26-1.3-39.1-2c-7.9-0.4-14.9-0.5-20-8   c-1.7-2.5-3.3-5.1-4.9-7.7c-7.9-12.4-15.9-24.9-23.8-37.3c-13.5-21.2-27-42.4-40.6-63.6c-3.5-5.6-2.2-13.6,2.4-18.2   c18-18,35.9-35.9,53.9-53.9c4.6-4.6,12.6-5.9,18.2-2.3l25.5,16.3c26.1,16.7,52.2,33.3,78.3,50c3.7,2.4,8,4.6,10.3,8.5   c3.1,5.3,2.4,14,2.7,20c0.6,11.2,1.1,22.4,1.7,33.6c3.9,3.9,7.7,7.7,11.6,11.6c22.5,22.5,45,45,67.5,67.5   c14.1,14.1,28.2,28.2,42.3,42.3C410.1,387.8,410.1,397.6,404.4,403.3z"/></g><text x="0" y="1039" fill="#000000" font-size="5px" font-weight="bold" font-family="'Helvetica Neue', Helvetica, Arial-Unicode, Arial, Sans-serif">Created by shashank singh</text><text x="0" y="1044" fill="#000000" font-size="5px" font-weight="bold" font-family="'Helvetica Neue', Helvetica, Arial-Unicode, Arial, Sans-serif">from the Noun Project</text></svg>