<?xml version="1.0"?>
<svg width="110" height="135" xmlns="http://www.w3.org/2000/svg" xmlns:svg="http://www.w3.org/2000/svg" version="1.1">

 <g class="layer">
  <title>Layer 1</title>
  <path d="m16.86,25.37c-0.82,-0.07 -1.43,-0.78 -1.36,-1.6l0.16,-2.06c-6.59,8 -10.14,17.93 -10.14,28.29c0,9.09 2.73,17.87 7.92,25.35c0.47,0.67 0.31,1.6 -0.37,2.07c-0.67,0.47 -1.6,0.3 -2.07,-0.37c-5.53,-7.96 -8.46,-17.36 -8.46,-27.05c0,-11.29 3.98,-22.13 11.29,-30.72l-2.62,0.21c-0.82,0.06 -1.53,-0.55 -1.59,-1.37s0.54,-1.53 1.36,-1.59l6.39,-0.51c0.92,-0.08 1.69,0.71 1.6,1.62l-0.51,6.37c-0.06,0.81 -0.78,1.42 -1.6,1.36zm58.49,61.19c-7.48,5.19 -16.26,7.92 -25.35,7.92c-10.36,0 -20.29,-3.55 -28.28,-10.14l2.05,0.16c0.82,0.06 1.53,-0.55 1.6,-1.37c0.06,-0.82 -0.55,-1.53 -1.37,-1.6l-6.37,-0.51c-0.91,-0.08 -1.69,0.68 -1.62,1.6l0.51,6.39c0.06,0.82 0.78,1.43 1.6,1.37c0.82,-0.06 1.43,-0.78 1.36,-1.6l-0.21,-2.62c8.6,7.32 19.44,11.3 30.73,11.3c9.69,0 19.09,-2.93 27.04,-8.46c0.68,-0.47 0.84,-1.39 0.37,-2.07c-0.46,-0.68 -1.39,-0.84 -2.06,-0.38l0,0.01zm13.43,-6.05l-2.61,0.21c7.31,-8.59 11.29,-19.43 11.29,-30.72c0,-9.69 -2.93,-19.09 -8.46,-27.04c-0.47,-0.68 -1.39,-0.84 -2.07,-0.37c-0.68,0.46 -0.84,1.39 -0.37,2.07c5.19,7.47 7.92,16.25 7.92,25.34c0,10.37 -3.55,20.29 -10.14,28.29l0.16,-2.06c0.07,-0.82 -0.54,-1.53 -1.36,-1.59c-0.82,-0.07 -1.54,0.54 -1.6,1.36l-0.51,6.37c-0.09,0.91 0.68,1.7 1.59,1.63l6.39,-0.52c0.83,-0.06 1.43,-0.78 1.37,-1.59c-0.06,-0.83 -0.78,-1.44 -1.6,-1.38zm-11.51,-25.04c-0.73,3.61 -2.15,6.98 -4.13,9.94l3.88,3.88l-7.73,7.73l-3.88,-3.88c-2.96,1.99 -6.32,3.41 -9.95,4.13l0,5.48l-10.93,0l0,-5.48c-3.61,-0.73 -6.98,-2.15 -9.94,-4.13l-3.88,3.88l-7.73,-7.73l3.87,-3.88c-1.98,-2.96 -3.4,-6.33 -4.12,-9.95l-5.48,0l0,-10.92l5.48,0c0.73,-3.62 2.15,-6.99 4.13,-9.95l-3.88,-3.88l7.73,-7.73l3.88,3.88c2.96,-1.99 6.33,-3.41 9.95,-4.13l0,-5.48l10.93,0l0,5.48c3.62,0.73 6.98,2.15 9.95,4.13l3.88,-3.88l7.73,7.73l-3.88,3.88c1.98,2.96 3.4,6.33 4.12,9.95l5.48,0l0,10.93l-5.48,0zm-8.81,-5.47c0,-10.19 -8.27,-18.46 -18.46,-18.46s-18.46,8.26 -18.46,18.46s8.26,18.46 18.46,18.46s18.46,-8.26 18.46,-18.46zm-18.46,-15.48c-8.55,0 -15.48,6.93 -15.48,15.48c0,7 4.69,13.12 11.41,14.95l0.01,-11.43l-3.98,0c-0.87,0 -1.41,-1.02 -0.85,-1.74l8.03,-10.4c0.44,-0.56 1.28,-0.56 1.71,0l8.04,10.4c0.56,0.72 0.02,1.74 -0.86,1.74l-3.97,0l0,11.42c6.73,-1.82 11.42,-7.94 11.42,-14.94c0,-8.55 -6.93,-15.48 -15.48,-15.48zm-25.35,-21.07c7.47,-5.2 16.26,-7.93 25.35,-7.93c10.36,0 20.29,3.56 28.28,10.15l-2.05,-0.17c-0.82,-0.06 -1.54,0.55 -1.6,1.37c-0.06,0.82 0.55,1.53 1.37,1.6l6.37,0.51c0.91,0.08 1.69,-0.68 1.62,-1.6l-0.51,-6.39c-0.06,-0.82 -0.78,-1.43 -1.6,-1.37c-0.82,0.06 -1.43,0.78 -1.37,1.6l0.22,2.62c-8.61,-7.32 -19.44,-11.3 -30.73,-11.3c-9.69,0 -19.09,2.93 -27.04,8.46c-0.68,0.47 -0.84,1.4 -0.38,2.07c0.47,0.68 1.4,0.85 2.07,0.38z" id="svg_1"/>
 </g>
</svg>