<?xml version="1.0"?>
<svg width="24" height="24" xmlns="http://www.w3.org/2000/svg" xmlns:svg="http://www.w3.org/2000/svg">

 <g class="layer">
  <title>Layer 1</title>
  <path d="m12,2c-5.52,0 -10,4.48 -10,10c0,4.99 3.66,9.13 8.44,9.88l0,-6.99l-2.54,0l0,-2.89l2.54,0l0,-2.2c0,-2.51 1.49,-3.89 3.77,-3.89c1.1,0 2.24,0.19 2.24,0.19l0,2.46l-1.26,0c-1.24,0 -1.63,0.77 -1.63,1.56l0,1.88l2.77,0l-0.44,2.89l-2.33,0l0,6.99c4.78,-0.75 8.44,-4.89 8.44,-9.88c0,-5.52 -4.48,-10 -10,-10z" fill="#0000ff" id="svg_1"/>
 </g>
</svg>