<svg xmlns="http://www.w3.org/2000/svg" viewBox="0 0 32 40" x="0px" y="0px"><g data-name="Layer 11"><path d="M26,2H6A2,2,0,0,0,4,4V28a2,2,0,0,0,2,2H26a2,2,0,0,0,2-2V4A2,2,0,0,0,26,2ZM6,8H8v8H6ZM6,18H9a1,1,0,0,0,1-1V7A1,1,0,0,0,9,6H6V4H26V20H23a1,1,0,0,0-1,1v7H6ZM24,28V22h2v6Z"/><path d="M23,18a1,1,0,0,0,1-1V7a1,1,0,0,0-2,0V17A1,1,0,0,0,23,18Z"/><path d="M19,8H13a1,1,0,0,0-1,1v6a1,1,0,0,0,1,1h6a1,1,0,0,0,1-1V9A1,1,0,0,0,19,8Zm-1,6H14V10h4Z"/><path d="M10,20H9a1,1,0,0,0,0,2h1a1,1,0,0,0,0-2Z"/><path d="M19,20H14a1,1,0,0,0,0,2h5a1,1,0,0,0,0-2Z"/><path d="M10,24H9a1,1,0,0,0,0,2h1a1,1,0,0,0,0-2Z"/><path d="M19,24H14a1,1,0,0,0,0,2h5a1,1,0,0,0,0-2Z"/></g><text x="0" y="47" fill="#000000" font-size="5px" font-weight="bold" font-family="'Helvetica Neue', Helvetica, Arial-Unicode, Arial, Sans-serif">Created by Ahmad Roaayala</text><text x="0" y="52" fill="#000000" font-size="5px" font-weight="bold" font-family="'Helvetica Neue', Helvetica, Arial-Unicode, Arial, Sans-serif">from the Noun Project</text></svg>