<?xml version="1.0"?>
<svg width="110" height="135" xmlns="http://www.w3.org/2000/svg" xmlns:svg="http://www.w3.org/2000/svg" version="1.1">
 <g class="layer">
  <title>Layer 1</title>
  <path d="m17.01,41.04c-0.94,-0.08 -1.63,-0.89 -1.55,-1.83l0.18,-2.35c-7.52,9.13 -11.58,20.47 -11.58,32.29c0,10.38 3.12,20.4 9.04,28.94c0.54,0.76 0.35,1.83 -0.42,2.36c-0.76,0.54 -1.83,0.34 -2.36,-0.42c-6.31,-9.09 -9.66,-19.82 -9.66,-30.88c0,-12.89 4.54,-25.26 12.89,-35.07l-2.99,0.24c-0.94,0.07 -1.75,-0.63 -1.82,-1.56s0.62,-1.75 1.55,-1.82l7.29,-0.58c1.05,-0.09 1.93,0.81 1.83,1.85l-0.58,7.27c-0.07,0.92 -0.89,1.62 -1.83,1.55zm66.77,69.85c-8.54,5.92 -18.56,9.04 -28.94,9.04c-11.83,0 -23.16,-4.05 -32.28,-11.58l2.34,0.18c0.94,0.07 1.75,-0.63 1.83,-1.56c0.07,-0.94 -0.63,-1.75 -1.56,-1.83l-7.27,-0.58c-1.04,-0.09 -1.93,0.78 -1.85,1.83l0.58,7.29c0.07,0.94 0.89,1.63 1.83,1.56c0.94,-0.07 1.63,-0.89 1.55,-1.83l-0.24,-2.99c9.82,8.36 22.19,12.9 35.08,12.9c11.06,0 21.79,-3.34 30.87,-9.66c0.78,-0.54 0.96,-1.59 0.42,-2.36c-0.53,-0.78 -1.59,-0.96 -2.35,-0.43l0,0.01zm15.33,-6.91l-2.98,0.24c8.34,-9.81 12.89,-22.18 12.89,-35.07c0,-11.06 -3.34,-21.79 -9.66,-30.87c-0.54,-0.78 -1.59,-0.96 -2.36,-0.42c-0.78,0.53 -0.96,1.59 -0.42,2.36c5.92,8.53 9.04,18.55 9.04,28.93c0,11.84 -4.05,23.16 -11.58,32.29l0.18,-2.35c0.08,-0.94 -0.62,-1.75 -1.55,-1.82c-0.94,-0.08 -1.76,0.62 -1.83,1.55l-0.58,7.27c-0.1,1.04 0.78,1.94 1.82,1.86l7.29,-0.59c0.95,-0.07 1.63,-0.89 1.56,-1.82c-0.07,-0.95 -0.89,-1.64 -1.83,-1.58zm-13.14,-28.58c-0.83,4.12 -2.45,7.97 -4.71,11.35l4.43,4.43l-8.82,8.82l-4.43,-4.43c-3.38,2.27 -7.21,3.89 -11.36,4.71l0,6.26l-12.48,0l0,-6.26c-4.12,-0.83 -7.97,-2.45 -11.35,-4.71l-4.43,4.43l-8.82,-8.82l4.42,-4.43c-2.26,-3.38 -3.88,-7.23 -4.7,-11.36l-6.26,0l0,-12.47l6.26,0c0.83,-4.13 2.45,-7.98 4.71,-11.36l-4.43,-4.43l8.82,-8.82l4.43,4.43c3.38,-2.27 7.23,-3.89 11.36,-4.71l0,-6.26l12.48,0l0,6.26c4.13,0.83 7.97,2.45 11.36,4.71l4.43,-4.43l8.82,8.82l-4.43,4.43c2.26,3.38 3.88,7.23 4.7,11.36l6.26,0l0,12.48l-6.26,0zm-10.06,-6.24c0,-11.63 -9.44,-21.07 -21.07,-21.07s-21.07,9.43 -21.07,21.07s9.43,21.07 21.07,21.07s21.07,-9.43 21.07,-21.07zm-21.07,-17.67c-9.76,0 -17.67,7.91 -17.67,17.67c0,7.99 5.35,14.98 13.03,17.07l0.01,-13.05l-4.54,0c-0.99,0 -1.61,-1.16 -0.97,-1.99l9.17,-11.87c0.5,-0.64 1.46,-0.64 1.95,0l9.18,11.87c0.64,0.82 0.02,1.99 -0.98,1.99l-4.53,0l0,13.04c7.68,-2.08 13.04,-9.06 13.04,-17.06c0,-9.76 -7.91,-17.67 -17.67,-17.67zm-28.94,-24.05c8.53,-5.94 18.56,-9.05 28.94,-9.05c11.83,0 23.16,4.06 32.28,11.59l-2.34,-0.19c-0.94,-0.07 -1.76,0.63 -1.83,1.56c-0.07,0.94 0.63,1.75 1.56,1.83l7.27,0.58c1.04,0.09 1.93,-0.78 1.85,-1.83l-0.58,-7.29c-0.07,-0.94 -0.89,-1.63 -1.83,-1.56c-0.94,0.07 -1.63,0.89 -1.56,1.83l0.25,2.99c-9.83,-8.36 -22.19,-12.9 -35.08,-12.9c-11.06,0 -21.79,3.34 -30.87,9.66c-0.78,0.54 -0.96,1.6 -0.43,2.36c0.54,0.78 1.6,0.97 2.36,0.43z" id="svg_1"/>
 </g>

</svg>