<?xml version="1.0"?>
<svg width="24" height="24" xmlns="http://www.w3.org/2000/svg" xmlns:svg="http://www.w3.org/2000/svg">

 <g class="layer">
  <title>Layer 1</title>
  <path clip-rule="evenodd" d="m18.4,5.63a8.92,8.92 0 0 0 -6.35,-2.63c-4.94,0 -8.97,4.03 -8.97,8.98c0,1.58 0.41,3.12 1.19,4.48l-1.27,4.66l4.76,-1.25a8.98,8.98 0 0 0 4.29,1.09l0,0c4.95,0 8.98,-4.03 8.98,-8.98a8.93,8.93 0 0 0 -2.63,-6.35m-6.35,13.82l0,0a7.45,7.45 0 0 1 -3.8,-1.05l-0.27,-0.16l-2.82,0.74l0.75,-2.75l-0.18,-0.28a7.45,7.45 0 0 1 -1.14,-3.97c0,-4.12 3.35,-7.46 7.47,-7.46a7.41,7.41 0 0 1 5.27,2.18a7.42,7.42 0 0 1 2.18,5.28c0,4.12 -3.34,7.47 -7.46,7.47m4.1,-5.59c-0.23,-0.12 -1.33,-0.66 -1.54,-0.73c-0.2,-0.08 -0.35,-0.12 -0.5,0.11s-0.58,0.73 -0.71,0.88s-0.26,0.16 -0.49,0.05s-0.95,-0.35 -1.8,-1.11c-0.67,-0.6 -1.12,-1.33 -1.25,-1.55s-0.01,-0.35 0.1,-0.46c0.1,-0.1 0.22,-0.26 0.34,-0.4c0.11,-0.13 0.14,-0.22 0.22,-0.37s0.04,-0.28 -0.02,-0.39c-0.06,-0.12 -0.5,-1.22 -0.69,-1.67c-0.18,-0.43 -0.37,-0.38 -0.51,-0.38a9.65,9.65 0 0 0 -0.42,-0.01a0.83,0.83 0 0 0 -0.6,0.28c-0.21,0.23 -0.79,0.77 -0.79,1.87s0.81,2.17 0.92,2.32c0.11,0.15 1.58,2.42 3.83,3.39c0.54,0.23 0.95,0.37 1.28,0.47c0.54,0.17 1.02,0.15 1.41,0.09c0.43,-0.06 1.33,-0.54 1.52,-1.06c0.18,-0.53 0.18,-0.98 0.13,-1.07c-0.06,-0.1 -0.21,-0.15 -0.43,-0.26" fill="#00e500" fill-rule="evenodd" id="svg_1"/>
 </g>
</svg>